<svg xmlns="http://www.w3.org/2000/svg" width="1280" height="640" viewBox="0 0 1280 640">
  <defs>
    <linearGradient id="background" x1="0" y1="0" x2="1" y2="1">
      <stop offset="0" stop-color="#0b1220"/>
      <stop offset="0.58" stop-color="#102338"/>
      <stop offset="1" stop-color="#0b2731"/>
    </linearGradient>
    <radialGradient id="glow">
      <stop offset="0" stop-color="#16d6d0" stop-opacity="0.24"/>
      <stop offset="1" stop-color="#16d6d0" stop-opacity="0"/>
    </radialGradient>
    <linearGradient id="card" x1="0" y1="0" x2="1" y2="1">
      <stop offset="0" stop-color="#ffffff" stop-opacity="0.11"/>
      <stop offset="1" stop-color="#ffffff" stop-opacity="0.035"/>
    </linearGradient>
  </defs>
  <rect width="1280" height="640" fill="url(#background)"/>
  <circle cx="1015" cy="305" r="370" fill="url(#glow)"/>
  <g fill="none" stroke="#b9f6f4" stroke-opacity="0.055">
    <path d="M0 96H1280M0 192H1280M0 288H1280M0 384H1280M0 480H1280M0 576H1280"/>
    <path d="M96 0V640M192 0V640M288 0V640M384 0V640M480 0V640M576 0V640M672 0V640M768 0V640M864 0V640M960 0V640M1056 0V640M1152 0V640M1248 0V640"/>
  </g>
  <rect x="72" y="76" width="570" height="488" rx="28" fill="url(#card)" stroke="#ffffff" stroke-opacity="0.12"/>
  <rect x="112" y="119" width="270" height="42" rx="21" fill="#12c9c8" fill-opacity="0.13" stroke="#51e3df" stroke-opacity="0.34"/>
  <circle cx="137" cy="140" r="5" fill="#5ff3e8"/>
  <text x="156" y="146" fill="#a9efed" font-family="DejaVu Sans, sans-serif" font-size="15" font-weight="700" letter-spacing="2">LOCAL CLIPBOARD HISTORY</text>
  <text x="112" y="245" fill="#f6fbff" font-family="DejaVu Sans, sans-serif" font-size="61" font-weight="700">ClipVault</text>
  <text x="112" y="311" fill="#d7e8f3" font-family="DejaVu Sans, sans-serif" font-size="30" font-weight="500">Your clipboard,</text>
  <text x="112" y="354" fill="#d7e8f3" font-family="DejaVu Sans, sans-serif" font-size="30" font-weight="500">close at hand.</text>
  <text x="112" y="416" fill="#9bb3c5" font-family="DejaVu Sans, sans-serif" font-size="19">Search. Organize. Paste.</text>
  <g font-family="DejaVu Sans, sans-serif" font-size="15" font-weight="700" letter-spacing="1.1">
    <rect x="112" y="468" width="119" height="42" rx="21" fill="#ffffff" fill-opacity="0.07" stroke="#ffffff" stroke-opacity="0.16"/>
    <text x="139" y="495" fill="#e7f1f7">macOS</text>
    <rect x="245" y="468" width="105" height="42" rx="21" fill="#ffffff" fill-opacity="0.07" stroke="#ffffff" stroke-opacity="0.16"/>
    <text x="275" y="495" fill="#e7f1f7">LINUX</text>
  </g>
  <circle cx="948" cy="320" r="237" fill="#071622" fill-opacity="0.58" stroke="#bbfff7" stroke-opacity="0.17" stroke-width="2"/>
  <circle cx="948" cy="320" r="197" fill="#ffffff" fill-opacity="0.045" stroke="#50ded9" stroke-opacity="0.13"/>
  <image href="../../app/tauri/src-tauri/icons/clipvault-mark-distinct.png" x="789" y="161" width="318" height="318" preserveAspectRatio="xMidYMid meet"/>
  <text x="111" y="535" fill="#7994a9" font-family="DejaVu Sans, sans-serif" font-size="13" letter-spacing="1.2">OPEN SOURCE • ON-DEVICE HISTORY</text>
</svg>
